<svg xmlns="http://www.w3.org/2000/svg">
  <!-- Header -->
  <symbol viewBox="0 0 150 35" fill="none" id="logo-icon">
    <g clip-path="url(#clip0_1_1069)">
    <path d="M17.15 0C7.67748 0 0 7.67746 0 17.15C0 26.0201 6.73548 33.3175 15.3711 34.207C14.8496 29.9134 15.0436 26.4001 15.7067 23.5135C15.3347 21.7225 14.4898 19.0703 12.5734 17.1864C12.5734 17.1864 13.8348 19.0784 14.5181 21.6214C14.5181 21.6255 14.5221 21.6295 14.5221 21.6335C14.5949 21.9044 14.6596 22.1793 14.7162 22.4623C14.7283 22.527 14.7404 22.5917 14.7526 22.6604C14.8051 22.9515 14.8536 23.2426 14.886 23.5418C5.19513 22.3532 3.12921 13.6569 3.35561 10.3781C13.665 10.9482 15.7754 17.8292 16.0827 22.0985C19.4585 11.0412 30.1843 10.4024 31.0697 10.3781C31.4538 18.8763 25.1509 25.5026 17.6149 26.0807C17.6635 25.8503 17.7201 25.6198 17.7767 25.3934C17.7928 25.3247 17.813 25.26 17.8333 25.1913C17.8777 25.0296 17.9222 24.8679 17.9748 24.7061C17.995 24.6374 18.0192 24.5646 18.0394 24.4959C18.096 24.318 18.1567 24.1442 18.2173 23.9663C18.2335 23.9259 18.2456 23.8854 18.2618 23.845C18.3386 23.6348 18.4195 23.4326 18.5003 23.2305C18.5084 23.2143 18.5125 23.1941 18.5205 23.1779C18.5205 23.1779 18.5205 23.1779 18.5246 23.1779C20.4571 18.5043 24.0229 15.4439 24.0229 15.4439C17.0247 19.4868 15.8441 29.9983 15.6582 34.2231C16.1514 34.2676 16.6446 34.2999 17.15 34.2999C26.6225 34.2999 34.3 26.6225 34.3 17.15C34.3 7.67746 26.6225 0 17.15 0Z" fill="#46A358"/>
    <path d="M46.7037 10.7454C48.9718 10.7454 50.8235 11.7197 52.0242 13.4986L49.7764 15.4109C48.9718 14.287 47.9975 13.7048 46.6471 13.7048C44.5691 13.7048 43.2753 15.0713 43.2753 17.1534C43.2753 19.2719 44.6418 20.695 46.8372 20.695C48.0177 20.695 48.9556 20.2826 49.554 19.5912V19.0091H46.6673V16.2356H52.7762V20.133C52.194 21.1639 51.3693 21.9887 50.3019 22.6234C49.2346 23.242 48.0339 23.5614 46.7037 23.5614C42.9923 23.618 39.9237 20.7313 39.9763 17.1534C39.9197 13.5956 42.9923 10.6888 46.7037 10.7454Z" fill="#46A358"/>
    <path d="M61.9576 23.3316L59.168 19.4908H57.8379V23.3316H54.6157V10.9684H59.4672C62.2204 10.9684 64.2459 12.6543 64.2459 15.2215C64.2459 16.7376 63.5141 17.995 62.2972 18.7429L65.5558 23.3316H61.9576ZM57.8338 16.681H59.4833C60.3809 16.681 60.963 16.0988 60.963 15.2215C60.963 14.3442 60.3809 13.7782 59.4833 13.7782H57.8338V16.681Z" fill="#46A358"/>
    <path d="M66.8333 10.9684H75.4124V13.8712H70.0555V15.5773H73.876V18.2739H70.0555V20.4288H75.6388V23.3316H66.8333V10.9684Z" fill="#46A358"/>
    <path d="M77.6441 10.9684H86.2231V13.8712H80.8663V15.5773H84.6868V18.2739H80.8663V20.4288H86.4495V23.3316H77.6441V10.9684Z" fill="#46A358"/>
    <path d="M99.4192 10.9683V23.5579H98.3882L91.681 17.057V23.3315H88.4588V10.7419H89.4897L96.197 17.1499V10.9683H99.4192Z" fill="#46A358"/>
    <path d="M103.264 19.135C103.996 20.1094 104.764 20.7279 106.017 20.7279C106.862 20.7279 107.291 20.4288 107.291 19.8264C107.291 19.2846 107.008 19.1148 106.033 18.6822L104.76 18.1203C102.718 17.2187 101.631 16.0584 101.631 14.3927C101.631 12.2014 103.43 10.7379 105.957 10.7379C107.998 10.7379 109.442 11.7123 110.19 13.2283L108.035 14.8778C107.436 13.9803 106.874 13.5679 105.993 13.5679C105.318 13.5679 104.889 13.8307 104.889 14.3563C104.889 14.8051 105.152 15.0517 105.957 15.367L107.38 15.9654C109.535 16.867 110.545 17.9505 110.545 19.6929C110.545 22.0904 108.576 23.5539 106.009 23.5539C103.782 23.5539 101.982 22.4866 101.081 20.7805L103.264 19.135Z" fill="#46A358"/>
    <path d="M112.393 10.9684H115.615V15.4843H120.131V10.9684H123.353V23.3316H120.131V18.3871H115.615V23.3316H112.393V10.9684Z" fill="#46A358"/>
    <path d="M131.843 10.7419C135.441 10.6651 138.607 13.6084 138.53 17.1499C138.603 20.7279 135.441 23.6145 131.843 23.5579C128.229 23.6145 125.116 20.7279 125.193 17.1499C125.116 13.6084 128.229 10.6692 131.843 10.7419ZM131.859 13.7014C129.874 13.7014 128.488 15.1083 128.488 17.1499C128.488 18.1809 128.807 19.0218 129.426 19.6606C130.044 20.2791 130.869 20.5985 131.859 20.5985C133.772 20.5985 135.231 19.2118 135.231 17.1499C135.235 15.1083 133.772 13.7014 131.859 13.7014Z" fill="#46A358"/>
    <path d="M140.374 10.9684H145.226C147.979 10.9684 150.004 12.6543 150.004 15.2215C150.004 17.7524 147.926 19.4908 145.226 19.4908H143.596V23.3316H140.374V10.9684ZM145.242 16.681C146.139 16.681 146.721 16.0988 146.721 15.2215C146.721 14.3442 146.139 13.7782 145.242 13.7782H143.592V16.681H145.242Z" fill="#46A358"/>
    </g>
    <defs>
    <clipPath id="clip0_1_1069">
    <rect width="150" height="34.2999" fill="white"/>
    </clipPath>
    </defs>
  </symbol>

  <symbol viewBox="0 0 20 20" fill="none" id="search-icon">
    <path d="M14.5726 16.0029C10.5755 19.1865 4.988 18.3056 2.02842 14.6542C-0.828088 11.129 -0.64944 6.04347 2.44943 2.82482C5.65137 -0.500594 10.6854 -0.944524 14.3346 1.78337C15.642 2.76051 16.6183 4.00364 17.2542 5.50838C17.8938 7.02186 18.0881 8.59654 17.8663 10.2205C17.6452 11.837 17 13.2775 15.9499 14.6217C16.0349 14.6773 16.1255 14.7173 16.1904 14.7822C17.3448 15.9311 18.4947 17.0843 19.6491 18.2331C19.9227 18.5054 20.0589 18.8225 19.9776 19.2047C19.8165 19.9651 18.9107 20.2586 18.3298 19.7366C18.0575 19.4925 17.807 19.2234 17.5484 18.9649C16.6002 18.0177 15.6526 17.0699 14.7044 16.1227C14.665 16.0853 14.6238 16.0503 14.5726 16.0029ZM15.9605 8.98677C15.9705 5.12689 12.8529 2.00627 8.98261 2.00065C5.12292 1.99503 2.00781 5.09068 1.99094 8.94806C1.97408 12.8173 5.08544 15.9467 8.96762 15.9648C12.8117 15.9829 15.9505 12.8504 15.9605 8.98677Z" fill="#3D3D3D"/>
  </symbol>

  <symbol viewBox="0 0 31 24" fill="none" id="shop-icon">
    <path d="M17.1567 20.25H9.89163C6.79003 20.25 4.26667 17.7267 4.26667 14.6251V8.85947C4.26667 5.9762 2.82958 3.30739 0.422521 1.72031C-0.00975775 1.43531 -0.129101 0.853876 0.155897 0.421598C0.440896 -0.0107278 1.02228 -0.130118 1.45465 0.154974C2.82874 1.06097 3.94351 2.2559 4.74067 3.63167C4.91293 3.82466 6.30202 5.29699 8.57919 5.29699H19.3748C22.3201 5.24191 24.6254 8.19769 23.8554 11.0406L22.6126 15.9939C21.9839 18.4998 19.7404 20.25 17.1567 20.25ZM5.90513 6.64234C6.06099 7.36238 6.14166 8.10483 6.14166 8.85947V14.6251C6.14166 16.6928 7.8239 18.375 9.89163 18.375H17.1567C18.8792 18.375 20.3748 17.2082 20.794 15.5376L22.0367 10.5844C22.4943 8.89509 21.1243 7.13931 19.3748 7.17198H8.57914C7.54926 7.17198 6.65283 6.94993 5.90513 6.64234ZM9.42289 22.8281C9.42289 22.1809 8.89822 21.6563 8.25102 21.6563C6.69609 21.7182 6.69745 23.9387 8.25102 24C8.89822 24 9.42289 23.4753 9.42289 22.8281ZM18.751 22.8281C18.751 22.1809 18.2263 21.6563 17.5791 21.6563C16.0242 21.7182 16.0255 23.9387 17.5791 24C18.2263 24 18.751 23.4753 18.751 22.8281ZM20.3123 9.98446C20.3123 9.46668 19.8925 9.04697 19.3748 9.04697H8.95414C7.71027 9.09647 7.71121 10.8729 8.95414 10.922H19.3748C19.8925 10.922 20.3123 10.5022 20.3123 9.98446Z" fill="#3D3D3D"/>
    <circle cx="23.001" cy="8" r="7" fill="#46A358" stroke="white" stroke-width="2"/>
    <path d="M25.121 8.83C25.121 7.58 24.101 6.62 22.951 6.62C22.841 6.62 22.751 6.63 22.661 6.65L24.251 4.4H23.001L21.351 6.73C21.121 7.06 20.951 7.31 20.841 7.49C20.731 7.67 20.641 7.87 20.561 8.1C20.491 8.32 20.451 8.56 20.451 8.82C20.421 10.12 21.531 11.13 22.781 11.11C24.041 11.11 25.121 10.12 25.121 8.83ZM24.071 8.83C24.071 9.2 23.941 9.52 23.691 9.77C23.441 10.02 23.141 10.14 22.781 10.14C22.411 10.14 22.111 10.02 21.861 9.77C21.611 9.52 21.491 9.2 21.491 8.83C21.491 8.46 21.611 8.15 21.861 7.9C22.111 7.65 22.411 7.52 22.781 7.52C23.141 7.52 23.441 7.65 23.691 7.9C23.941 8.15 24.071 8.46 24.071 8.83Z" fill="white"/>
  </symbol>

  <symbol viewBox="0 0 20 20" fill="none" id="login-icon">
    <path d="M18.1601 10.1006H8.12598" stroke="white" stroke-width="1.5" stroke-linecap="round" stroke-linejoin="round"/>
    <path d="M15.7212 7.67059L18.1612 10.1006L15.7212 12.5306" stroke="white" stroke-width="1.5" stroke-linecap="round" stroke-linejoin="round"/>
    <path d="M13.6342 6.35826C13.3592 3.37493 12.2425 2.2916 7.80082 2.2916C1.88332 2.2916 1.88332 4.2166 1.88332 9.99993C1.88332 15.7833 1.88332 17.7083 7.80082 17.7083C12.2425 17.7083 13.3592 16.6249 13.6342 13.6416" stroke="white" stroke-width="1.5" stroke-linecap="round" stroke-linejoin="round"/>
  </symbol>

  <!-- Pagination -->
  <symbol viewBox="0 0 8 12" fill="none" id="next-page-arrow-icon">
    <path d="M1.375 0.75C1.375 0.75 6.625 3.858 6.625 6C6.625 8.14125 1.375 11.25 1.375 11.25" stroke="#3D3D3D" stroke-width="1.5" stroke-linecap="round" stroke-linejoin="round"/>
  </symbol>

  <!-- Info -->
  <symbol viewBox="0 0 18 18" fill="none" id="find-more-arrow-icon">
    <path d="M14.8126 8.79428H3.56258" stroke="white" stroke-width="1.5" stroke-linecap="round" stroke-linejoin="round"/>
    <path d="M10.2748 4.2759C10.2748 4.2759 14.8123 6.72165 14.8123 8.79315C14.8123 10.8662 10.2748 13.3127 10.2748 13.3127" stroke="white" stroke-width="1.5" stroke-linecap="round" stroke-linejoin="round"/>
  </symbol>

  <!-- Blog -->
  <symbol viewBox="0 0 16 16" fill="none" id="read-more-arrow-icon">
    <path d="M2.66666 7.81714C2.66666 7.56401 2.85476 7.35481 3.09881 7.3217L3.16666 7.31714L13.1667 7.31714C13.4428 7.31714 13.6667 7.541 13.6667 7.81714C13.6667 8.07027 13.4786 8.27947 13.2345 8.31257L13.1667 8.31714H3.16666C2.89051 8.31714 2.66666 8.09328 2.66666 7.81714Z" fill="#3D3D3D"/>
    <path d="M8.78066 4.15517C8.58498 3.96033 8.5843 3.64375 8.77914 3.44807C8.95627 3.27018 9.23401 3.25344 9.43006 3.39825L9.48624 3.44655L13.5196 7.46255C13.698 7.6402 13.7142 7.91895 13.5683 8.11499L13.5196 8.17114L9.48627 12.1878C9.29061 12.3827 8.97403 12.382 8.77917 12.1863C8.60203 12.0085 8.58646 11.7307 8.7321 11.5352L8.78063 11.4792L12.458 7.81666L8.78066 4.15517Z" fill="#3D3D3D"/>
  </symbol>

  <symbol viewBox="0 0 16 16" fill="none" id="read-more-green-arrow-icon">
    <path d="M2.66666 7.81714C2.66666 7.56401 2.85477 7.35481 3.09882 7.3217L3.16666 7.31714L13.1667 7.31714C13.4428 7.31714 13.6667 7.541 13.6667 7.81714C13.6667 8.07027 13.4786 8.27947 13.2345 8.31257L13.1667 8.31714H3.16666C2.89052 8.31714 2.66666 8.09328 2.66666 7.81714Z" fill="#46A358"/>
    <path d="M8.78067 4.15517C8.58499 3.96033 8.58431 3.64375 8.77915 3.44807C8.95628 3.27018 9.23402 3.25344 9.43007 3.39825L9.48625 3.44655L13.5196 7.46255C13.698 7.6402 13.7142 7.91895 13.5683 8.11499L13.5196 8.17114L9.48628 12.1878C9.29062 12.3827 8.97403 12.382 8.77918 12.1863C8.60203 12.0085 8.58647 11.7307 8.73211 11.5352L8.78064 11.4792L12.458 7.81666L8.78067 4.15517Z" fill="#46A358"/>
  </symbol>

  <!-- Footer -->
  <symbol viewBox="0 0 20 20" fill="none" id="location-icon">
    <path fill-rule="evenodd" clip-rule="evenodd" d="M12.0918 8.92542C12.0918 7.77436 11.1591 6.84166 10.0081 6.84166C8.85787 6.84166 7.92517 7.77436 7.92517 8.92542C7.92517 10.0756 8.85787 11.0083 10.0081 11.0083C11.1591 11.0083 12.0918 10.0756 12.0918 8.92542Z" stroke="#46A358" stroke-width="1.5" stroke-linecap="round" stroke-linejoin="round"/>
    <path fill-rule="evenodd" clip-rule="evenodd" d="M9.99959 17.5C7.58457 17.5 3.75 13.2989 3.75 8.8322C3.75 5.33539 6.54758 2.5 9.99959 2.5C13.4516 2.5 16.25 5.33539 16.25 8.8322C16.25 13.2989 12.4154 17.5 9.99959 17.5Z" stroke="#46A358" stroke-width="1.5" stroke-linecap="round" stroke-linejoin="round"/>
  </symbol>

  <symbol viewBox="0 0 20 20" fill="none" id="email-icon">
    <path d="M14.6208 7.51582C14.6208 7.51582 11.9457 10.7263 9.98917 10.7263C8.03345 10.7263 5.32835 7.51582 5.32835 7.51582" stroke="#46A358" stroke-width="1.5" stroke-linecap="round" stroke-linejoin="round"/>
    <path fill-rule="evenodd" clip-rule="evenodd" d="M2.0434 9.97397C2.0434 4.27556 4.02752 2.37665 9.9799 2.37665C15.9323 2.37665 17.9164 4.27556 17.9164 9.97397C17.9164 15.6716 15.9323 17.5713 9.9799 17.5713C4.02752 17.5713 2.0434 15.6716 2.0434 9.97397Z" stroke="#46A358" stroke-width="1.5" stroke-linecap="round" stroke-linejoin="round"/>
  </symbol>

  <symbol viewBox="0 0 20 20" fill="none" id="phone-icon">
    <path d="M11.9604 2.29175C15.0446 2.63425 17.4813 5.06758 17.8279 8.15175" stroke="#46A358" stroke-width="1.5" stroke-linecap="round" stroke-linejoin="round"/>
    <path d="M11.9604 5.24425C13.4363 5.53091 14.5896 6.68508 14.8771 8.16091" stroke="#46A358" stroke-width="1.5" stroke-linecap="round" stroke-linejoin="round"/>
    <path fill-rule="evenodd" clip-rule="evenodd" d="M6.41709 13.5825C0.668773 7.83352 1.48617 5.20096 2.09214 4.35263C2.16999 4.21552 4.08875 1.34323 6.14551 3.02839C11.2507 7.23288 4.78761 6.63843 9.07452 10.9261C13.3623 15.2128 12.767 8.74996 16.9716 13.8541C18.6568 15.9117 15.7844 17.8303 15.6482 17.9073C14.7998 18.5141 12.1663 19.3315 6.41709 13.5825Z" stroke="#46A358" stroke-width="1.5" stroke-linecap="round" stroke-linejoin="round"/>
  </symbol>

  <symbol id="facebook-icon">
    <path d="M2 5.33333H0V8H2V16H5.33333V8H7.73333L8 5.33333H5.33333V4.2C5.33333 3.6 5.46667 3.33333 6.06667 3.33333H8V0H5.46667C3.06667 0 2 1.06667 2 3.06667V5.33333Z" fill="#46A358" fill-opacity="0.6"/>
  </symbol>

  <symbol id="instagram-icon">
    <path d="M8 1.46667C10.1333 1.46667 10.4 1.46667 11.2667 1.53333C13.4667 1.6 14.4667 2.66667 14.5333 4.8C14.6 5.66667 14.6 5.86667 14.6 8C14.6 10.1333 14.6 10.4 14.5333 11.2C14.4667 13.3333 13.4 14.4 11.2667 14.4667C10.4 14.5333 10.2 14.5333 8 14.5333C5.86667 14.5333 5.6 14.5333 4.8 14.4667C2.6 14.4 1.6 13.3333 1.53333 11.2C1.46667 10.3333 1.46667 10.1333 1.46667 8C1.46667 5.86667 1.46667 5.6 1.53333 4.8C1.6 2.66667 2.66667 1.6 4.8 1.53333C5.6 1.46667 5.86667 1.46667 8 1.46667ZM8 0C5.8 0 5.53333 0 4.73333 0.0666667C1.8 0.2 0.2 1.8 0.0666667 4.73333C0 5.53333 0 5.8 0 8C0 10.2 0 10.4667 0.0666667 11.2667C0.2 14.2 1.8 15.8 4.73333 15.9333C5.53333 16 5.8 16 8 16C10.2 16 10.4667 16 11.2667 15.9333C14.2 15.8 15.8 14.2 15.9333 11.2667C16 10.4667 16 10.2 16 8C16 5.8 16 5.53333 15.9333 4.73333C15.8 1.8 14.2 0.2 11.2667 0.0666667C10.4667 0 10.2 0 8 0ZM8 3.86667C5.73333 3.86667 3.86667 5.73333 3.86667 8C3.86667 10.2667 5.73333 12.1333 8 12.1333C10.2667 12.1333 12.1333 10.2667 12.1333 8C12.1333 5.73333 10.2667 3.86667 8 3.86667ZM8 10.6667C6.53333 10.6667 5.33333 9.46667 5.33333 8C5.33333 6.53333 6.53333 5.33333 8 5.33333C9.46667 5.33333 10.6667 6.53333 10.6667 8C10.6667 9.46667 9.46667 10.6667 8 10.6667ZM12.2667 2.8C11.7333 2.8 11.3333 3.2 11.3333 3.73333C11.3333 4.26667 11.7333 4.66667 12.2667 4.66667C12.8 4.66667 13.2 4.26667 13.2 3.73333C13.2 3.2 12.8 2.8 12.2667 2.8Z" fill="#46A358" fill-opacity="0.6"/>
  </symbol>

  <symbol id="twitter-icon">
    <path d="M5.03186 13.0036C11.0699 13.0036 14.3718 8.00118 14.3718 3.66357C14.3718 3.52144 14.3689 3.38005 14.3624 3.2392C15.0033 2.77588 15.5605 2.19756 16 1.53953C15.4118 1.80085 14.7789 1.97682 14.1149 2.05616C14.7926 1.64981 15.313 1.0067 15.5585 0.24021C14.9241 0.616357 14.2217 0.889688 13.4742 1.03709C12.8749 0.399076 12.0218 0 11.0779 0C9.26483 0 7.79464 1.4702 7.79464 3.28233C7.79464 3.54001 7.82357 3.79041 7.87962 4.0308C5.1516 3.89377 2.73239 2.58735 1.11352 0.601253C0.831273 1.08622 0.668767 1.64999 0.668767 2.25106C0.668767 3.38988 1.24837 4.3953 2.12968 4.98363C1.59121 4.96707 1.08531 4.81894 0.642926 4.57291C0.642198 4.58656 0.642198 4.60039 0.642198 4.61476C0.642198 6.2047 1.77392 7.53204 3.27578 7.83285C3.00008 7.90801 2.71001 7.94841 2.41047 7.94841C2.19901 7.94841 1.99338 7.9273 1.79339 7.88927C2.21121 9.19332 3.42318 10.1425 4.86007 10.1693C3.73636 11.0499 2.32094 11.5745 0.783049 11.5745C0.518272 11.5745 0.256952 11.5594 0 11.529C1.45273 12.46 3.17769 13.0036 5.03186 13.0036Z" fill="#46A358" fill-opacity="0.6"/>
  </symbol>

  <symbol id="linkedin-icon">
    <path d="M3.33333 1.66667C3.33333 2.6 2.6 3.33333 1.66667 3.33333C0.733333 3.33333 0 2.6 0 1.66667C0 0.733333 0.733333 0 1.66667 0C2.6 0 3.33333 0.733333 3.33333 1.66667ZM3.33333 4.66667H0V15.3333H3.33333V4.66667ZM8.66667 4.66667H5.33333V15.3333H8.66667V9.73333C8.66667 6.6 12.6667 6.33333 12.6667 9.73333V15.3333H16V8.6C16 3.33333 10.0667 3.53333 8.66667 6.13333V4.66667Z" fill="#46A358" fill-opacity="0.6"/>
  </symbol>

  <symbol id="youtube-icon">
    <path fill-rule="evenodd" clip-rule="evenodd" d="M15.1653 4.42995L15.168 4.43062C15.168 4.43062 15.1676 4.4305 15.1667 4.4303C15.1663 4.4302 15.1658 4.43008 15.1653 4.42995ZM4.32444 4.35686C6.91762 4.19575 11.7483 4.19575 14.3415 4.35686L14.3422 4.3644C14.4047 4.99716 14.4299 5.84143 14.4299 7.01915C14.4299 8.18238 14.4053 9.02689 14.3441 9.66498C11.6962 9.77026 6.97129 9.77027 4.32282 9.66502C4.261 9.03324 4.23602 8.19137 4.23602 7.01915C4.23602 5.84143 4.26123 4.99716 4.32369 4.3644L4.32444 4.35686ZM15.2422 9.61106C15.2422 9.61109 15.2405 9.61148 15.237 9.61215L15.2422 9.61106ZM3.49794 9.60768L3.50063 9.60836C3.49881 9.60793 3.49792 9.60769 3.49794 9.60768ZM0 7.01915C0 11.8412 0.388873 13.63 3.42208 13.8633C6.22196 14.0189 12.4439 14.0189 15.2438 13.8633C18.277 13.7078 18.6659 11.8412 18.6659 7.01915C18.6659 2.19713 18.277 0.408316 15.2438 0.174993C12.4439 -0.0583309 6.22196 -0.0583309 3.42208 0.174993C0.388873 0.408316 0 2.19713 0 7.01915ZM3.49794 4.43062C3.49792 4.43061 3.49884 4.43037 3.50073 4.42992L3.49794 4.43062ZM9.78228 8.73886C8.50388 9.37806 6.99973 8.44845 6.99973 7.01915C6.99973 5.58986 8.50388 4.66025 9.78228 5.29945C11.1994 6.008 11.1994 8.0303 9.78228 8.73886Z" fill="#46A358" fill-opacity="0.6"/>
  </symbol>

  <!-- Registration -->
  <symbol viewBox="0 0 20 20" fill="none" id="google-icon">
    <g clip-path="url(#clip0_2_2044)">
    <path d="M16.4336 17.6055C14.6992 19.0703 12.4492 20 9.99999 20C6.35545 20 3.1562 17.9922 1.42186 15.0625L2.07116 12.0695L4.9492 11.5352C5.61717 13.6914 7.63276 15.2734 9.99999 15.2734C11.1484 15.2734 12.2148 14.9102 13.0937 14.2656L15.8594 14.6875L16.4336 17.6055Z" fill="#59C36A"/>
    <path d="M16.4336 17.6055L15.8594 14.6875L13.0937 14.2656C12.2148 14.9102 11.1484 15.2735 10 15.2735V20C12.4493 20 14.6992 19.0703 16.4336 17.6055Z" fill="#00A66C"/>
    <path d="M4.72656 10C4.72656 10.539 4.8086 11.0546 4.94922 11.5352L1.42188 15.0625C0.542969 13.5859 0 11.8515 0 10C0 8.1484 0.542969 6.41406 1.42188 4.9375L4.25285 5.42473L4.94922 8.46484C4.8086 8.94527 4.72656 9.4609 4.72656 10Z" fill="#FFDA2D"/>
    <path d="M20 10C20 13.0468 18.5899 15.7773 16.4336 17.6055L13.0938 14.2656C13.7734 13.7734 14.3477 13.1171 14.7227 12.3437H10C9.67184 12.3437 9.41406 12.0859 9.41406 11.7578V8.24219C9.41406 7.91402 9.67184 7.65625 10 7.65625H19.25C19.5312 7.65625 19.7773 7.85543 19.8242 8.13668C19.9414 8.74609 20 9.37887 20 10Z" fill="#4086F4"/>
    <path d="M14.7227 12.3437C14.3477 13.1171 13.7734 13.7734 13.0938 14.2656L16.4336 17.6055C18.5899 15.7773 20 13.0469 20 10C20 9.37887 19.9414 8.74609 19.8242 8.13668C19.7773 7.85543 19.5312 7.65625 19.25 7.65625H10V12.3437H14.7227Z" fill="#4175DF"/>
    <path d="M16.5976 2.79293C16.6094 2.95699 16.5391 3.10937 16.4336 3.22652L13.9258 5.72262C13.7266 5.93355 13.3985 5.95699 13.1641 5.78121C12.2382 5.08984 11.1484 4.72656 9.99999 4.72656C7.63276 4.72656 5.61717 6.30855 4.9492 8.46484L1.42186 4.9375C3.1562 2.00781 6.35546 0 9.99999 0C12.332 0 14.6055 0.859375 16.3867 2.35934C16.5156 2.46484 16.5859 2.62887 16.5976 2.79293Z" fill="#FF641A"/>
    <path d="M13.1641 5.78121C13.3984 5.95703 13.7265 5.93355 13.9257 5.72262L16.4336 3.22652C16.5391 3.10938 16.6094 2.95703 16.5976 2.79293C16.5859 2.62883 16.5156 2.46484 16.3867 2.35934C14.6055 0.859375 12.332 0 10 0V4.72656C11.1484 4.72656 12.2382 5.08984 13.1641 5.78121Z" fill="#F03800"/>
    </g>
    <defs>
    <clipPath id="clip0_2_2044">
    <rect width="20" height="20" fill="white"/>
    </clipPath>
    </defs>
  </symbol>

  <symbol viewBox="0 0 20 20" fill="none" id="facebook-registration-icon">
    <g clip-path="url(#clip0_2_2021)">
    <path d="M13.3309 3.32083H15.1567V0.140833C14.8417 0.0975 13.7584 0 12.4967 0C6.72006 0 8.29172 6.54167 8.06172 7.5H5.15589V11.055H8.06089V20H11.6226V11.0558H14.4101L14.8526 7.50083H11.6217C11.7784 5.1475 10.9876 3.32083 13.3309 3.32083Z" fill="#3B5999"/>
    </g>
    <defs>
    <clipPath id="clip0_2_2021">
    <rect width="20" height="20" fill="white"/>
    </clipPath>
    </defs>
  </symbol>
</svg>